<?xml version="1.0" encoding="iso-8859-1"?>
<!-- Uploaded to: SVG Repo, www.svgrepo.com, Generator: SVG Repo Mixer Tools -->
<svg height="800px" width="800px" version="1.1" id="Capa_1" xmlns="http://www.w3.org/2000/svg" xmlns:xlink="http://www.w3.org/1999/xlink" 
	 viewBox="0 0 406.254 406.254" xml:space="preserve">
<g>
	<g>
		<path style="fill:#010002;" d="M116.563,176.742l-29.357,50.999h58.833C145.049,206.325,133.562,187.649,116.563,176.742z
			 M107.845,215.807l12.047-20.926c5.609,5.937,9.762,13.115,12.101,20.926H107.845z"/>
		<path style="fill:#010002;" d="M82.05,233.612h-5.084l4.523-8.109l0.107,0.036l29.805-51.786
			c-8.807-4.553-18.772-7.172-29.351-7.172c-35.372,0-64.144,28.772-64.144,64.144s28.772,64.144,64.144,64.144
			c34.363,0,62.419-27.179,63.995-61.16H82.05V233.612z M132.023,245.641c-6.408,21.684-26.397,37.293-49.973,37.293
			c-28.79,0-52.21-23.42-52.21-52.21s23.42-52.21,52.21-52.21c4.093,0,8.115,0.471,12.029,1.414l-17.96,31.207l-0.239-0.084
			l-19.231,34.494h13.461v0.095H132.023z"/>
		<path style="fill:#010002;" d="M324.216,148.679c-8.73,0-17.262,1.378-25.484,4.105l-4.678-8.58h4.714
			c13.986,0,25.359-11.379,25.359-25.359s-11.373-25.359-25.359-25.359h-29.834c-8.228,0-14.917,6.695-14.917,14.917v5.967H181.56
			V93.486H99.307v29.834h20.669l3.3,5.877l-13.933,24.202c-8.765-3.109-18.026-4.72-27.298-4.72C36.804,148.679,0,185.483,0,230.724
			s36.804,82.044,82.044,82.044c40.157,0,73.601-28.683,80.606-67.127h36.171c4.893,0,9.481-2.405,12.274-6.438l56.333-81.501
			l5.12,9.398c-19.207,15.496-30.383,38.558-30.383,63.625c0,45.241,36.804,82.044,82.044,82.044s82.044-36.804,82.044-82.044
			C406.26,185.483,369.457,148.679,324.216,148.679z M324.216,300.835c-38.659,0-70.111-31.451-70.111-70.111
			c0-25.449,13.676-47.705,34.017-59.991l-19.494-35.759l-67.354,97.445c-0.555,0.806-1.474,1.289-2.452,1.289h-46.816
			c-1.575,37.269-32.305,67.127-69.956,67.127c-38.659,0-70.111-31.451-70.111-70.111s31.451-70.111,70.111-70.111
			c11.665,0,22.644,2.906,32.328,7.96l22.626-39.304l-10.036-17.883h-15.723v-5.967h58.386v5.967h-35.819l8.372,14.917h123.765
			v-17.901c0-1.647,1.337-2.983,2.983-2.983h29.834c7.399,0,13.425,6.021,13.425,13.425s-6.027,13.425-13.425,13.425v-5.967
			c4.111,0,7.459-3.347,7.459-7.459s-3.347-7.459-7.459-7.459h-26.851v17.137l21.445,39.34c9.326-4.6,19.768-7.25,30.855-7.25
			c38.659,0,70.111,31.451,70.111,70.111S362.869,300.835,324.216,300.835z M286.833,123.32v7.638l-2.983-5.472v-2.166H286.833z"/>
		<path style="fill:#010002;" d="M119.534,171.574c18.778,11.946,31.469,32.549,32.472,56.166h41.655l-53.23-92.475L119.534,171.574
			z M162.639,215.807c-3.425-18.473-13.133-35.258-27.465-47.478l5.263-9.147l32.591,56.62h-10.388V215.807z"/>
		<path style="fill:#010002;" d="M324.216,166.58c-10.048,0-19.524,2.387-27.997,6.522l30.622,56.19l-5.245,2.858l-30.622-56.184
			c-18.491,11.265-30.902,31.565-30.902,54.752c0,35.372,28.772,64.144,64.144,64.144s64.144-28.772,64.144-64.144
			S359.581,166.58,324.216,166.58z M324.216,282.934c-28.79,0-52.21-23.42-52.21-52.21c0-14.022,5.525-27.072,15.198-36.732
			l29.62,54.346l26.212-14.273l-29.649-54.4c3.55-0.764,7.166-1.152,10.83-1.152c28.79,0,52.21,23.42,52.21,52.21
			S353.006,282.934,324.216,282.934z"/>
		<path style="fill:#010002;" d="M199.049,225.145l64.198-92.874H145.592L199.049,225.145z M199.968,202.823l-33.737-58.619h74.258
			L199.968,202.823z"/>
	</g>
</g>
</svg>